<?xml version="1.0" encoding="utf-8"?>
<!-- Generator: Adobe Illustrator 19.2.1, SVG Export Plug-In . SVG Version: 6.00 Build 0)  -->
<svg version="1.1" id="Layer_1" xmlns="http://www.w3.org/2000/svg" xmlns:xlink="http://www.w3.org/1999/xlink" x="0px" y="0px"
	 viewBox="0 0 539.4 500.6" style="enable-background:new 0 0 539.4 500.6;" xml:space="preserve">
<style type="text/css">
	.st0{fill:none;stroke:#597B69;}
	.st1{fill:#C7BBDC;stroke:#000000;stroke-opacity:0;}
	.st2{fill:#A8C7BC;stroke:#000000;stroke-opacity:0;}
</style>
<g id="edges">
	<path class="st0" id="Big Fish Games Paul Thelen" d="M121.7,159.2c18.4-2.6,49.9,21.1,52.5,39.5"/>
	<path class="st0" id="Isilon Sujal Patel" d="M425.3,144.2c-3.7,19.1-37.7,42.2-56.8,38.6"/>
	<path class="st0" id="Qumulo Peter Godman" d="M126,405.1c0.2-18.7,28.6-46.4,47.4-46.2"/>
	<path class="st0" id="ReplyYes Dave Cotter" d="M53.2,280.3c0.6-20.5,32.1-50.3,52.6-49.8"/>
	<path class="st0" id="Shelfari Josh Hug" d="M460.6,367.6c-20.1-13.4-30.2-63.8-16.8-83.9"/>
	<path class="st0" id="Shelfari Kevin Beukelman" d="M460.6,367.6c-21.6,6.8-64.1-15.3-70.9-36.9"/>
	<path class="st0" id="Smilebox Andrew Wright" d="M111.4,325.2c3-16.9,32.8-37.8,49.7-34.8"/>
	<path class="st0" id="Appnique Jai Jaisimha" d="M284.8,474.9c-14.3-13.1-16.2-45.1-3.1-59.4"/>
	<path class="st0" id="Sqoop Bill Hankes" d="M198.1,459.1c-7.8-17.6,7-55.7,24.6-63.4"/>
	<path class="st0" id="Flowplay Derrick Morton" d="M182,81.7c17.5,5.8,35.1,40.7,29.3,58.2"/>
	<path class="st0" id="AdXpose Dave Cotter" d="M24,231.2c16.2-16.5,65.2-16.9,81.7-0.7"/>
	<path class="st0" id="SquareHub Dave Cotter" d="M49.6,176.7c22-0.5,55.7,31.8,56.2,53.8"/>
	<path class="st0" id="Fierce Inc. Halley Bock" d="M406.2,57c-2.5,22.7-40.4,53.1-63.1,50.6"/>
	<path class="st0" id="LUX Media Halley Bock" d="M349.8,24.7c15.3,17.9,11.3,67.7-6.7,83"/>
	<path class="st0" id="Hughes Media Law Group Joleen Winther Hughes" d="M475.3,194.5c-9.4,15.9-54.4,49.7-70.3,40.3"/>
	<path class="st0" id="Syntonic Inc. Gary Greenbaum" d="M277.9,72.4c14.2,14-6.2,81.1-20.2,95.3"/>
	<path class="st0" id="Communique PR Colleen Moffitt" d="M378.3,446.6c-18.1-6.1-35.9-42.5-29.8-60.5"/>
	<path class="st0" id="Remitly Josh Hug" d="M513.8,313.1c-19.9,8.1-61.9-9.5-70-29.4"/>
	<path class="st0" id="RealNetworks Paul Thelen" d="M274.4,263.6c-33,7-93.1-31.9-100.1-64.9"/>
	<path class="st0" id="RealNetworks Sujal Patel" d="M274.4,263.6c2.7-35,59.2-83.5,94.2-80.9"/>
	<path class="st0" id="RealNetworks Peter Godman" d="M274.4,263.6c-1.2,39.3-61.8,96.4-101,95.2"/>
	<path class="st0" id="RealNetworks Dave Cotter" d="M274.4,263.6c-40.4,27.1-141.5,7.2-168.6-33.1"/>
	<path class="st0" id="RealNetworks Josh Hug" d="M274.4,263.6c37.9-29.9,139.6-17.8,169.4,20.1"/>
	<path class="st0" id="RealNetworks Andrew Wright" d="M274.4,263.6c-17.3,28-85.3,44.1-113.3,26.8"/>
	<path class="st0" id="RealNetworks Jai Jaisimha" d="M274.4,263.6c30,27.1,34.4,121.8,7.3,151.9"/>
	<path class="st0" id="RealNetworks Bill Hankes" d="M274.4,263.6c16.1,36.7-14.9,116-51.6,132.1"/>
	<path class="st0" id="RealNetworks Derrick Morton" d="M274.4,263.6c-37.3-12.1-75.1-86.3-63-123.7"/>
	<path class="st0" id="RealNetworks Halley Bock" d="M274.4,263.6c-17.4-45,23.8-138.5,68.8-156"/>
	<path class="st0" id="RealNetworks Joleen Winther Hughes" d="M274.4,263.6c20.4-31.9,98.7-49.2,130.6-28.8"/>
	<path class="st0" id="RealNetworks Gary Greenbaum" d="M274.4,263.6c-17.7-25.4-34.1-73.6-16.6-95.9"/>
	<path class="st0" id="RealNetworks Colleen Moffitt" d="M274.4,263.6c37.3,11.7,85.8,85.1,74.1,122.5"/>
	<path class="st0" id="RealNetworks Kevin Beukelman" d="M274.4,263.6c36.5-9.7,105.7,30.6,115.4,67.1"/>
</g>
<g id="nodes">
	<circle class="st1" id="Paul Thelen" cx="174.3" cy="198.7" r="20"/>
	<circle class="st1" id="Sujal Patel" cx="368.5" cy="182.8" r="20"/>
	<circle class="st1" id="Peter Godman" cx="173.3" cy="358.9" r="20"/>
	<circle class="st1" id="Dave Cotter" cx="105.7" cy="230.5" r="20"/>
	<circle class="st1" id="Josh Hug" cx="443.8" cy="283.7" r="20"/>
	<circle class="st1" id="Andrew Wright" cx="161.1" cy="290.5" r="20"/>
	<circle class="st1" id="Jai Jaisimha" cx="281.7" cy="415.5" r="20"/>
	<circle class="st1" id="Bill Hankes" cx="222.7" cy="395.7" r="20"/>
	<circle class="st1" id="Derrick Morton" cx="211.4" cy="140" r="20"/>
	<circle class="st1" id="Halley Bock" cx="343.1" cy="107.6" r="20"/>
	<circle class="st1" id="Joleen Winther Hughes" cx="405" cy="234.8" r="20"/>
	<circle class="st1" id="Gary Greenbaum" cx="257.3" cy="178.9" r="20"/>
	<circle class="st1" id="Colleen Moffitt" cx="348.5" cy="386.1" r="20"/>
	<circle class="st1" id="Kevin Beukelman" cx="389.7" cy="330.7" r="20"/>
	<circle class="st2" id="Big Fish Games" cx="121.7" cy="159.2" r="25"/>
	<circle class="st2" id="Isilon" cx="425.3" cy="144.2" r="25"/>
	<circle class="st2" id="Qumulo" cx="126" cy="405.1" r="25"/>
	<circle class="st2" id="ReplyYes" cx="53.2" cy="280.3" r="25"/>
	<circle class="st2" id="Shelfari" cx="460.6" cy="367.6" r="25"/>
	<circle class="st2" id="Smilebox" cx="111.4" cy="325.2" r="25"/>
	<circle class="st2" id="Appnique" cx="284.8" cy="474.9" r="25"/>
	<circle class="st2" id="Sqoop" cx="198.1" cy="459.1" r="25"/>
	<circle class="st2" id="Flowplay" cx="182" cy="81.7" r="25"/>
	<circle class="st2" id="AdXpose" cx="24" cy="231.2" r="25"/>
	<circle class="st2" id="SquareHub" cx="49.6" cy="176.7" r="25"/>
	<circle class="st2" id="Fierce Inc." cx="406.2" cy="57" r="25"/>
	<circle class="st2" id="LUX Media" cx="349.8" cy="24.7" r="25"/>
	<circle class="st2" id="Hughes Media Law Group" cx="475.3" cy="194.5" r="25"/>
	<circle class="st2" id="Syntonic Inc." cx="277.9" cy="72.4" r="25"/>
	<circle class="st2" id="Communique PR" cx="378.3" cy="446.6" r="25"/>
	<circle class="st2" id="Remitly" cx="513.8" cy="313.1" r="25"/>
	<circle class="st2" id="RealNetworks" cx="274.4" cy="263.6" r="40"/>
</g>
</svg>
